<?xml version="1.0" encoding="UTF-8"?>
<svg id="Layer_2" data-name="Layer 2" xmlns="http://www.w3.org/2000/svg" viewBox="0 0 412.57 382.02">
  <defs>
    <style>
      .cls-1 { fill: #4d4c4e; }
      .cls-2 { fill: #f9b78b; }
      .cls-3 { fill: #e69d55; }
      .cls-4 { fill: #fff; }
      .cls-5 { fill: #ef5484; }
      .cls-6 { fill: #f9eedf; }
      .cls-7 { fill: #e9383a; }
      .cls-8 { fill: #ca813e; }
      .cls-9 { fill: #feddc1; }
      .cls-10 { fill: #331510; }
    </style>
  </defs>
  <g id="Layer_1-2" data-name="Layer 1">
    <g id="illustration">
      <g id="_生成オブジェクト" data-name="生成オブジェクト">
        <g>
          <path class="cls-10" d="M272.75,367.65c5.95,21.16-32.96,13.71-36.86,9.77-2.86-2.89-1.54-8.41-1.22-12.21.42-4.95,6.56-40,3.17-41.5h-58.1c-3.64,1.62,2.79,37.38,3.17,42.48.67,8.9,1.04,11.7-8.55,14.16-10.13,2.6-34.91,4.46-29.54-12.7,3.47-11.08,16.2-11.61,25.15-6.84l.73-.73c-1.83-11.94-3.48-24-2.44-36.13-18.25-1.62-66.31,1.53-79.83-.73-14.45-2.42-26.52-15.76-28.56-30.03-1.64-11.44-.13-58.24,0-74.71-20.22-11.24-34.48-28.9-41.99-50.78-36.33-11.49-9.2-52.83,10.5-31.01,15.21-3.19,12.62,19.25-.24,27.59,6.1,16.15,16.46,30.77,31.01,40.28l.73-70.56c-42.44-23.53-21.5-71.59,9.03-95.46,66.18-51.72,217.76-52.2,281.74,3.42,27.3,23.73,45.97,71.54,4.64,91.55l.24,69.58c9.38-6.68,17.76-15.88,23.19-26.12,10.34-19.5,1.22-10.23-3.42-23.93-2.62-7.72-2.24-19.21,8.55-15.87,19.33-22.74,47.57,18.52,10.99,30.52-7.45,20.64-20.46,38.16-39.55,49.32-1.16,3.47,1.05,61.95,0,73.24-1.45,15.64-12.48,30.27-28.56,32.96-13.43,2.25-59.5-.87-77.39.73.61,12.33-.87,24.44-2.44,36.62,8.43-4.24,22.8-3.86,25.88,7.08Z"/>
          <path class="cls-3" d="M342.09,40.01c5.58,3.89,10.13,8.09,14.65,13.18l-3.66-2.93c21.29,27.2,31.77,59.58-4.15,80.32l.49,149.9c-2.89,16.15-11.22,28.55-28.08,31.49H89.4c-6.2-.95-12.2-2.12-17.82-4.88-3.47-5-3.97-6.8-5.37-12.94v-160.16l-3.42-1.71c-.1-.75.1-1.2-.49-1.95-6.15-4.03-14-9.12-17.09-16.11-8.46-19.14,3.99-44.65,17.09-58.84C118.58-5.55,272.77-8.29,342.09,40.01Z"/>
          <path class="cls-8" d="M201.22,18.04c43.67-.94,103.33,9.7,137.7,38.09,10.61,8.76,21.98,23.16,23.19,37.35,2.19,25.64-19.86,26.27-21.48,34.67-1.78,9.21,2.01,145.38,0,159.67-1.32,9.43-10.46,18.1-19.78,19.29H95.26c-8.41-1.11-17.55-9.38-18.8-17.82-1.96-13.24,1.87-148.44,0-159.67-1.76-10.59-23.28-9.08-21.48-35.16.98-14.25,12.29-28.84,22.7-37.84,30.6-26.46,83.89-37.72,123.54-38.58Z"/>
          <path class="cls-6" d="M198.78,21.46c39.34-1.2,87.81,6.5,122.07,26.37,15.96,9.26,36.28,26.34,37.84,46.14,2.02,25.65-19.99,20.64-21.97,36.13-2.19,17.13,2.02,146.47,0,159.18-1.06,6.64-8.93,13.45-15.38,14.4-15.63,2.31-191.85-1.77-226.07,0-9.26-2.27-14.7-8.31-15.87-17.82-1.11-23.11,1.45-150.18,0-158.2-2.05-11.35-23.54-8.88-21-34.18,1.34-13.32,12.76-27.16,22.7-35.4,29.81-24.69,79.64-35.46,117.68-36.62Z"/>
          <path class="cls-9" d="M195.36,28.78c38-1.64,85.53,4.65,119.14,22.95,14.56,7.93,43.41,29.16,36.86,48.58-3.88,11.52-19.42,9.34-21.48,24.41-2.05,15.03,1.79,153.21,0,162.11-.89,4.4-7.46,9.11-11.96,9.52H97.7c-4.63-.58-11-4.26-11.96-9.03-1.73-8.6,1.95-150.78,0-164.06-2.33-15.86-37.27-13.85-12.69-46.88,23.84-32.05,84.39-45.96,122.31-47.61Z"/>
          <g>
            <path class="cls-3" d="M356.74,53.2c21.66,24.45,31.01,62.24-4.88,78.37v159.67c-2.31,15.97-12.55,26.63-28.56,29.05H91.85c-1.07-.51-2.53-.76-3.66-.98-7.78-3.49-11.57-4.95-16.6-12.21,5.62,2.76,11.62,3.93,17.82,4.88h231.93c16.85-2.95,25.19-15.34,28.08-31.49l-.49-149.9c35.92-20.75,25.44-53.12,4.15-80.32l3.66,2.93Z"/>
            <path class="cls-4" d="M342.09,40.01C272.77-8.29,118.58-5.55,62.3,55.39c-13.1,14.19-25.55,39.69-17.09,58.84l-.98.98c-15.02-25.11,6.78-58.03,26.61-73.73,62.85-49.76,206.47-51.21,271.24-1.47Z"/>
            <g>
              <path class="cls-1" d="M241.75,323.7c.19-.13,4.4-.09,4.64.24,1.68,2.37-2.22,36.75-3.42,42.48,20.67-13.73,30.53,1.67,26.85,8.79-2.93,5.68-28.05,4.05-32.71-.98.11-10.55,2.92-20.82,3.91-31.25.73-7.78-.05-18.73.73-19.29Z"/>
              <path class="cls-1" d="M171.92,323.7c6.49-2.88,3.47,6.58,4.15,15.38.9,11.57,3.66,23.06,4.4,34.67-1.47,4.89-43.29,11.31-31.74-7.81,7.38-12.21,25.11,1.21,25.88,0-1.49-5.01-5.43-41.02-2.69-42.24Z"/>
            </g>
            <path class="cls-4" d="M71.58,307.1c5.03,7.25,8.82,8.71,16.6,12.21-13.02-2.49-22.86-13.04-24.9-26.12-2.93-18.78,1.85-143.38-.49-160.89l3.42,1.71v160.16c1.4,6.14,1.9,7.94,5.37,12.94Z"/>
            <g>
              <g>
                <path class="cls-1" d="M25.68,138.65c1.19,2.28.58,4.05,2.2,5.86,1.87.25.36-7.85,5.86-4.88,6.99,3.76-2.31,28.51-19.04,23.93-3.55-.97-9.75-7.21-10.99-10.74-.74-12.67,10.79-20.97,21.97-14.16Z"/>
                <path class="cls-1" d="M23.97,165.99c.61-.02,1.14-.12,1.71.24,1.76,1.14,5.06,18.13,23.19,34.42,7.79,7,12.44,5.21,10.25,13.67-13.1-7.23-25.52-20.23-32.47-33.45-.81-1.53-6.17-12.99-5.86-13.67.07-.16,3-1.22,3.17-1.22Z"/>
                <path class="cls-4" d="M25.68,138.65c-11.19-6.82-22.72,1.49-21.97,14.16-5.46-15.59,15.53-26.47,21.97-14.16Z"/>
              </g>
              <g>
                <path class="cls-1" d="M387.25,165.5c.24-.08,4.54,1.53,4.64,2.2-7.33,18.15-18.73,35.06-35.89,45.17-3.34-6.84,2.88-7.48,7.81-12.21,20.05-19.19,21.41-34.51,23.44-35.16Z"/>
                <g>
                  <path class="cls-1" d="M408.98,152.32c-1.18,4.57-9.29,10.97-10.01,11.23-11.39,4.11-24.62-9.42-22.22-20.75.47-2.2,2.89-4.39,5.13-3.66,2.32.75.99,5.65,2.44,5.37,1.88-.35,1.51-4.62,2.2-5.86,11.99-6.17,22.28.25,22.46,13.67Z"/>
                  <path class="cls-4" d="M408.98,152.32c-.18-13.42-10.47-19.84-22.46-13.67,6.25-11.29,26.81-3.18,22.46,13.67Z"/>
                </g>
              </g>
            </g>
            <path class="cls-6" d="M62.3,130.35c-6.46-1.33-14.79-9.65-18.07-15.14l.98-.98c3.09,6.99,10.94,12.08,17.09,16.11Z"/>
            <g>
              <path class="cls-5" d="M265.18,182.1c22.49-.88,26.54,18.93,5.86,21.48-26.86,3.32-29.53-20.56-5.86-21.48Z"/>
              <path class="cls-5" d="M147.02,182.1c22.39-.92,26.59,19.04,5.86,21.48-26.99,3.18-29.33-20.52-5.86-21.48Z"/>
              <path class="cls-2" d="M127.49,86.4c15.67-2.87,20.14,14.37,6.84,16.11-14.24,1.87-18.63-13.95-6.84-16.11Z"/>
              <path class="cls-2" d="M280.32,87.38c14.86-2.28,15.94,12.64,5.37,15.62-16.06,4.54-18.6-13.6-5.37-15.62Z"/>
              <path class="cls-2" d="M136.77,253.39c17.85-2.96,11.75,19.3-3.42,16.6-9.46-1.68-5.95-15.05,3.42-16.6Z"/>
              <path class="cls-2" d="M274.95,245.58c12.63-1.17,18.51,14.93,6.84,16.6-13.42,1.93-19.67-15.41-6.84-16.6Z"/>
              <path class="cls-2" d="M88.43,78.1c13.62-2.21,13.91,14.08.98,12.7-8.11-.87-9.43-11.32-.98-12.7Z"/>
              <path class="cls-2" d="M324.27,79.08c11.88-1.62,12.67,13.36,1.46,12.69-8.28-.49-10.05-11.52-1.46-12.69Z"/>
              <path class="cls-2" d="M176.32,49.78c7.35-1.41,12.02,6.86,6.84,9.28-8.59,4-14.76-7.76-6.84-9.28Z"/>
              <path class="cls-2" d="M235.4,47.83c7.36-1.32,11.65,7.34,6.35,9.77-7.81,3.58-14.31-8.34-6.35-9.77Z"/>
              <path class="cls-2" d="M99.17,218.72c12.17-2.56,7.76,13.23-1.95,9.77-5.05-1.81-2.4-8.85,1.95-9.77Z"/>
              <path class="cls-2" d="M103.08,256.32c9.92-.49,5.36,12.85-3.91,10.25-5.14-1.44-2.5-9.94,3.91-10.25Z"/>
              <path class="cls-2" d="M315.48,205.05c9.43,0,9.37,13.62-1.46,9.77-5.47-1.95-5.11-9.76,1.46-9.77Z"/>
              <path class="cls-2" d="M310.59,246.07c6.22-1.26,12.15,5.84,7.32,9.28-7.02,5.01-15.43-7.63-7.32-9.28Z"/>
              <g>
                <path class="cls-10" d="M148,143.04c25.15-2.86,24.7,38.96-.98,35.16-17.69-2.62-17.95-33,.98-35.16Z"/>
                <path class="cls-4" d="M145.56,148.9c7.75-.48,8.57,10.74,2.44,12.21-9.18,2.2-10.85-11.68-2.44-12.21Z"/>
                <path class="cls-4" d="M154.34,159.64c4.2-1.33,5.2,4.47,2.44,5.37-4.08,1.33-5.59-4.38-2.44-5.37Z"/>
              </g>
              <g>
                <path class="cls-10" d="M262.74,143.04c24.9-2.64,24.71,38.91-.98,35.16-17.94-2.62-17.8-33.16.98-35.16Z"/>
                <path class="cls-4" d="M260.3,148.9c8.69-.26,8.22,14.71-1.95,12.21-5.65-1.39-4.74-12.01,1.95-12.21Z"/>
                <path class="cls-4" d="M268.6,159.64c4.12-1.65,5.54,3.75,2.93,5.37-3.61,2.24-5.89-4.18-2.93-5.37Z"/>
              </g>
              <g>
                <path class="cls-10" d="M189.5,176.73c1.54-.19,5.12,2.88,6.84,3.42,22.55,7.02,30.72-9.13,32.47-.73,1.1,5.27-5.47,26.8-24.66,24.17-13.37-1.84-22.03-25.96-14.65-26.86Z"/>
                <path class="cls-7" d="M190.48,180.15c18.47,11.52,32.37.05,34.18,0,2.98-.08-1.66,12.93-6.84,17.09-12.72,10.21-28.66-2.93-27.34-17.09Z"/>
              </g>
              <g>
                <path class="cls-10" d="M297.9,170.87c5.18-1.16,10.28,8.27,3.91,9.77-6.83,1.6-7.68-8.92-3.91-9.77Z"/>
                <path class="cls-4" d="M298.88,174.29c1.09-.67,4.16,2.93,2.44,3.42-2.45.69-3-3.08-2.44-3.42Z"/>
              </g>
              <g>
                <path class="cls-10" d="M115.77,170.87c5.8-.69,5.22,11.45-1.95,9.77-5.73-1.35-1.99-9.3,1.95-9.77Z"/>
                <path class="cls-4" d="M115.77,174.29c2.13-.36.82,4.31-1.46,3.42-1.89-.74,1.24-3.38,1.46-3.42Z"/>
              </g>
            </g>
          </g>
        </g>
      </g>
    </g>
  </g>
</svg>
